<?xml version="1.0" standalone="no"?>
<!DOCTYPE svg PUBLIC "-//W3C//DTD SVG 20010904//EN"
 "http://www.w3.org/TR/2001/REC-SVG-20010904/DTD/svg10.dtd">
<svg version="1.0" xmlns="http://www.w3.org/2000/svg"
 width="1024.000000pt" height="1024.000000pt" viewBox="0 0 1024.000000 1024.000000"
 preserveAspectRatio="xMidYMid meet">
<metadata>
Created by potrace 1.11, written by Peter Selinger 2001-2013
</metadata>
<g transform="translate(0.000000,1024.000000) scale(0.100000,-0.100000)"
fill="#000000" stroke="none">
<path d="M30 9355 c0 -5 163 -167 1050 -1045 158 -157 590 -584 960 -950 1265
-1252 1156 -1147 1340 -1293 144 -114 523 -333 611 -352 16 -4 29 -11 29 -16
0 -5 8 -9 18 -9 10 0 22 -3 26 -7 3 -4 12 -8 19 -9 10 -2 149 -48 217 -72 28
-10 120 -34 180 -47 8 -2 35 -8 60 -14 25 -5 59 -12 75 -15 85 -13 118 -18
143 -22 183 -25 596 -24 727 3 17 3 46 7 66 8 20 1 41 5 48 9 6 4 11 5 11 3 0
-4 186 34 233 48 9 3 27 7 38 10 25 5 87 24 109 32 8 4 17 7 20 7 3 1 11 5 18
9 6 5 12 6 12 2 0 -3 17 2 38 11 20 8 45 17 54 19 9 2 47 17 83 34 37 17 70
31 75 31 5 0 25 9 44 21 20 12 36 17 36 12 0 -4 4 -3 8 2 4 6 34 24 67 40 33
17 93 51 135 76 41 25 86 52 99 60 30 17 19 9 156 110 61 45 117 87 125 95 8
8 44 40 79 72 35 31 171 163 302 292 130 129 517 512 859 850 574 568 835 827
1703 1686 l317 314 -741 0 -741 0 -286 -284 c-737 -731 -2044 -2023 -2111
-2086 -31 -30 -77 -67 -115 -95 -16 -11 -33 -25 -40 -30 -26 -24 -136 -92
-206 -128 -41 -21 -80 -43 -86 -48 -6 -5 -14 -6 -17 -2 -4 3 -7 0 -7 -7 0 -7
-3 -10 -7 -7 -3 4 -11 3 -17 -2 -33 -26 -308 -109 -416 -126 -113 -17 -145
-19 -295 -20 -199 0 -283 8 -440 45 -27 6 -59 13 -70 16 -11 2 -29 8 -40 12
-26 12 -117 43 -131 46 -25 4 -264 128 -324 168 -162 106 -168 112 -760 698
-209 206 -638 632 -955 945 -317 314 -652 645 -745 738 l-169 167 -736 0
c-404 0 -735 -2 -735 -5z"/>
<path d="M4997 4774 c-1 -1 -47 -4 -102 -8 -55 -3 -109 -8 -120 -10 -11 -2
-42 -7 -70 -10 -41 -6 -235 -41 -270 -50 -247 -62 -514 -168 -730 -291 -91
-52 -266 -163 -275 -175 -3 -3 -32 -26 -65 -50 -33 -24 -65 -49 -71 -54 -6 -6
-40 -36 -75 -67 -35 -31 -184 -175 -331 -320 -397 -393 -1386 -1372 -1858
-1839 -228 -226 -551 -546 -717 -711 -167 -164 -303 -301 -303 -304 0 -3 331
-5 735 -5 l736 0 97 96 c53 53 390 385 747 739 1264 1252 1380 1367 1420 1404
22 22 47 47 56 57 12 15 89 86 172 159 54 47 312 215 331 215 2 0 30 12 62 27
33 15 61 28 64 28 3 1 21 8 40 16 19 9 49 19 65 24 17 5 32 9 35 10 34 10 98
28 110 30 8 2 15 4 15 5 0 1 11 3 25 6 14 2 48 9 75 14 28 6 75 14 105 18 72
9 370 8 440 -1 74 -9 155 -24 155 -27 0 -1 14 -4 30 -6 132 -20 518 -184 593
-252 7 -6 23 -17 35 -23 11 -7 26 -16 31 -20 68 -55 143 -116 152 -124 13 -11
1061 -1046 1650 -1631 206 -203 376 -369 378 -367 1 2 9 -8 16 -22 7 -14 16
-25 20 -25 3 0 85 -79 182 -175 l177 -175 735 0 c405 0 736 2 736 5 0 5 -216
220 -1007 1002 -182 180 -620 614 -973 963 -1084 1072 -1135 1123 -1192 1175
-85 77 -108 97 -183 155 -38 29 -72 56 -75 59 -3 3 -17 12 -32 20 -15 8 -37
22 -47 33 -11 10 -23 18 -26 18 -4 0 -30 15 -58 34 -125 81 -457 248 -457 230
0 -2 -13 2 -29 10 -25 13 -166 64 -196 71 -38 8 -74 18 -95 26 -14 4 -36 11
-50 13 -14 3 -56 12 -93 20 -38 8 -87 18 -110 21 -23 3 -55 9 -72 11 -16 3
-50 7 -75 9 -25 2 -45 5 -45 6 0 6 -411 19 -418 13z"/>
</g>
</svg>
